<svg width="18" height="19" viewBox="0 0 18 19" fill="none" xmlns="http://www.w3.org/2000/svg">
<path d="M16.0714 0.292969H1.92857C1.41708 0.292969 0.926543 0.497427 0.564865 0.861365C0.203188 1.2253 0 1.71891 0 2.23359L0 16.4648C0 16.9795 0.203188 17.4731 0.564865 17.8371C0.926543 18.201 1.41708 18.4055 1.92857 18.4055H7.44308V12.2476H4.91183V9.34922H7.44308V7.14014C7.44308 4.62744 8.92969 3.23948 11.2066 3.23948C12.2971 3.23948 13.4373 3.43516 13.4373 3.43516V5.90137H12.1809C10.943 5.90137 10.5569 6.67439 10.5569 7.46722V9.34922H13.3204L12.8784 12.2476H10.5569V18.4055H16.0714C16.5829 18.4055 17.0735 18.201 17.4351 17.8371C17.7968 17.4731 18 16.9795 18 16.4648V2.23359C18 1.71891 17.7968 1.2253 17.4351 0.861365C17.0735 0.497427 16.5829 0.292969 16.0714 0.292969Z" fill="#FA4616"/>
</svg>
