<svg width="18" height="19" viewBox="0 0 18 19" fill="none" xmlns="http://www.w3.org/2000/svg">
<path d="M16.7143 0.3125H1.2817C0.574554 0.3125 0 0.907227 0 1.6373V17.3627C0 18.0928 0.574554 18.6875 1.2817 18.6875H16.7143C17.4214 18.6875 18 18.0928 18 17.3627V1.6373C18 0.907227 17.4214 0.3125 16.7143 0.3125ZM5.44018 16.0625H2.77232V7.29336H5.4442V16.0625H5.44018ZM4.10625 6.0957C3.25045 6.0957 2.55938 5.38613 2.55938 4.5166C2.55938 3.64707 3.25045 2.9375 4.10625 2.9375C4.95804 2.9375 5.65312 3.64707 5.65312 4.5166C5.65312 5.39023 4.96205 6.0957 4.10625 6.0957ZM15.4406 16.0625H12.7728V11.7969C12.7728 10.7797 12.7527 9.47129 11.3866 9.47129C9.99643 9.47129 9.78348 10.5787 9.78348 11.723V16.0625H7.11563V7.29336H9.675V8.49102H9.71116C10.0687 7.80195 10.9406 7.07598 12.2384 7.07598C14.9384 7.07598 15.4406 8.89297 15.4406 11.2555V16.0625Z" fill="#FA4616"/>
</svg>
